<?xml version="1.0" encoding="utf-8"?>
<!-- Generator: Adobe Illustrator 23.0.2, SVG Export Plug-In . SVG Version: 6.00 Build 0)  -->
<svg version="1.1" id="Layer_1" xmlns="http://www.w3.org/2000/svg" xmlns:xlink="http://www.w3.org/1999/xlink" x="0px" y="0px"
	 viewBox="0 0 180 180" style="enable-background:new 0 0 180 180;" xml:space="preserve">
<style type="text/css">
	.st0{display:none;}
	.st1{display:inline;}
	.st2{fill-rule:evenodd;clip-rule:evenodd;fill:#FFFFFF;}
	.st3{fill-rule:evenodd;clip-rule:evenodd;fill:url(#Path_2_);}
	.st4{fill-rule:evenodd;clip-rule:evenodd;fill:url(#Combined-Shape_2_);}
	.st5{fill-rule:evenodd;clip-rule:evenodd;fill:url(#SVGID_1_);}
	.st6{fill-rule:evenodd;clip-rule:evenodd;fill:url(#SVGID_2_);}
	.st7{fill-rule:evenodd;clip-rule:evenodd;fill:url(#SVGID_3_);}
	.st8{fill-rule:evenodd;clip-rule:evenodd;fill:url(#SVGID_4_);}
</style>
<g id="Page-1_1_" class="st0">
	<g id="Page_1_" class="st1">
	</g>
	<g transform="translate(-125.000000, -168.000000)" class="st1">
		<g id="Group-16-Copy_1_" transform="translate(125.000000, 168.000000)">
			<path id="Path_1_" class="st2" d="M68.9,67.1c-1.7,0-3,1.4-3,3.2v32.4c0,1.7,1.4,3.2,3,3.2c1.7,0,3-1.4,3-3.2V70.3
				C72,68.6,70.6,67.1,68.9,67.1z"/>
			<path id="Combined-Shape_1_" class="st2" d="M98.5,112.4V49.2c0-1.6,1.3-2.9,3-3c0.8,0,1.6,0.3,2.2,0.9c0.6,0.6,0.9,1.3,0.9,2.1
				v73.6v0.1v0.1v0.8c0,0.3,0,0.5-0.1,0.8c-0.9,6.3-6.8,11.2-13.9,11.2c-7.8,0-14-5.8-14-12.9c0-0.2,0-0.5,0-0.7l0,0V116l0,0V97.3
				l0,0l0,0V57c0-1.7,1.3-3.1,3-3.1c0.8,0,1.6,0.3,2.2,0.9c0.6,0.6,0.9,1.4,0.9,2.2v50.9c2.3,1.4,5,2.3,8,2.3c0.2,0,0.4,0,0.7,0
				C93.9,110.2,96.4,111,98.5,112.4z M90.8,125.8c-1.5,0-2.7-1.2-2.7-2.7s1.2-2.7,2.7-2.7s2.7,1.2,2.7,2.7
				C93.5,124.6,92.2,125.8,90.8,125.8z M90.8,115.9c-4,0-7.2,3.2-7.2,7.2s3.2,7.2,7.2,7.2s7.2-3.2,7.2-7.2
				C98,119.1,94.7,115.9,90.8,115.9z"/>
			<path class="st2" d="M89.8,65.6c-0.8,0-1.6,0.3-2.1,0.9c-0.6,0.6-0.9,1.4-0.9,2.2v35.8c0,1.7,1.4,3.1,3,3.1c1.7,0,3-1.4,3-3.1
				V68.8c0-0.8-0.3-1.6-0.9-2.2C91.4,66,90.6,65.6,89.8,65.6z"/>
			<path class="st2" d="M111.4,56.1c-1.7,0-3,1.4-3,3.1V114c0,1.7,1.4,3.1,3,3.1c1.7,0,3-1.4,3-3.1V59.3c0-0.8-0.3-1.6-0.9-2.2
				S112.2,56.1,111.4,56.1z"/>
			<path class="st2" d="M58.2,77c-1.7,0-3.1,1.4-3.1,3.1v3H31.8c-1.7,0-3.1,1.4-3.1,3.1s1.4,3.1,3.1,3.1H55v4c0,1.7,1.4,3.1,3.1,3.1
				s3.1-1.4,3.1-3.1V80.1c0-0.8-0.3-1.6-0.9-2.2C59.8,77.3,59,77,58.2,77z"/>
			<path class="st2" d="M148.5,82.3h-23.2v-3c0-1.1-0.6-2.1-1.6-2.7s-2.2-0.5-3.1,0s-1.6,1.6-1.6,2.7v13.2c0,1.1,0.6,2.1,1.6,2.7
				c1,0.5,2.2,0.5,3.1,0c1-0.5,1.6-1.6,1.6-2.7v-4h23.2c1.7,0,3.1-1.4,3.1-3.1C151.6,83.8,150.2,82.4,148.5,82.3L148.5,82.3z"/>
		</g>
	</g>
</g>
<g id="Page-1">
	<g id="Page">
	</g>
	<g transform="translate(-125.000000, -168.000000)">
		<g id="Group-16-Copy" transform="translate(125.000000, 168.000000)">
			
				<linearGradient id="Path_2_" gradientUnits="userSpaceOnUse" x1="383.1045" y1="247.1807" x2="392.3942" y2="247.1807" gradientTransform="matrix(16 0 0 102 -6112 -25125)">
				<stop  offset="0" style="stop-color:#4910C6"/>
				<stop  offset="1" style="stop-color:#FF7B53"/>
			</linearGradient>
			<path id="Path" class="st3" d="M63.6,62.9c-2.1,0-3.8,1.8-3.8,4v41c0,2.1,1.8,4,3.8,4c2,0,3.8-1.8,3.8-4V66.8
				C67.4,64.7,65.8,62.9,63.6,62.9z"/>
			
				<linearGradient id="Combined-Shape_2_" gradientUnits="userSpaceOnUse" x1="406.9122" y1="246.7675" x2="409.0125" y2="246.7675" gradientTransform="matrix(74 0 0 236 -30096.0039 -58144)">
				<stop  offset="0" style="stop-color:#4910C6"/>
				<stop  offset="1" style="stop-color:#FF7B53"/>
			</linearGradient>
			<path id="Combined-Shape" class="st4" d="M101,120.1V40.3c0-2,1.6-3.7,3.8-3.8c1,0,2,0.4,2.8,1.1c0.8,0.8,1.1,1.6,1.1,2.7v93.1
				v0.1v0.1v1c0,0.4,0,0.6-0.1,1c-1.1,8-8.6,14.2-17.6,14.2c-9.9,0-17.7-7.3-17.7-16.3c0-0.3,0-0.6,0-0.9l0,0v-7.8l0,0v-23.6l0,0
				l0,0V50c0-2.1,1.6-3.9,3.8-3.9c1,0,2,0.4,2.8,1.1c0.8,0.8,1.1,1.8,1.1,2.8v64.4c2.9,1.8,6.3,2.9,10.1,2.9c0.3,0,0.5,0,0.9,0
				C95.2,117.4,98.4,118.4,101,120.1z M91.2,137.1c-1.9,0-3.4-1.5-3.4-3.4c0-1.9,1.5-3.4,3.4-3.4c1.9,0,3.4,1.5,3.4,3.4
				C94.6,135.6,93.1,137.1,91.2,137.1z M91.2,124.5c-5.1,0-9.1,4-9.1,9.1c0,5.1,4,9.1,9.1,9.1c5.1,0,9.1-4,9.1-9.1
				C100.4,128.7,96.2,124.5,91.2,124.5z"/>
			
				<linearGradient id="SVGID_1_" gradientUnits="userSpaceOnUse" x1="379.5467" y1="247.1221" x2="388.9394" y2="247.1221" gradientTransform="matrix(16 0 0 111 -6057 -27343)">
				<stop  offset="0" style="stop-color:#4910C6"/>
				<stop  offset="1" style="stop-color:#FF7B53"/>
			</linearGradient>
			<path class="st5" d="M90,61c-1,0-2,0.4-2.7,1.1c-0.8,0.8-1.1,1.8-1.1,2.8v45.3c0,2.1,1.8,3.9,3.8,3.9c2.1,0,3.8-1.8,3.8-3.9V64.9
				c0-1-0.4-2-1.1-2.8C92.1,61.4,91,61,90,61z"/>
			
				<linearGradient id="SVGID_2_" gradientUnits="userSpaceOnUse" x1="376.1625" y1="246.9289" x2="385.3816" y2="246.9289" gradientTransform="matrix(16 0 0 161 -6000 -39668)">
				<stop  offset="0" style="stop-color:#4910C6"/>
				<stop  offset="0.9997" style="stop-color:#F0725D"/>
				<stop  offset="1" style="stop-color:#FF7B53"/>
			</linearGradient>
			<path class="st6" d="M117.3,49c-2.1,0-3.8,1.8-3.8,3.9v69.3c0,2.1,1.8,3.9,3.8,3.9c2.1,0,3.8-1.8,3.8-3.9V52.9c0-1-0.4-2-1.1-2.8
				C119.4,49.4,118.4,49,117.3,49z"/>
			
				<linearGradient id="SVGID_3_" gradientUnits="userSpaceOnUse" x1="409.3346" y1="247.854" x2="411.1642" y2="247.854" gradientTransform="matrix(86 0 0 51 -35190 -12553)">
				<stop  offset="0" style="stop-color:#4910C6"/>
				<stop  offset="1" style="stop-color:#FF7B53"/>
			</linearGradient>
			<path class="st7" d="M50.1,75.3c-2.1,0-3.9,1.8-3.9,3.9V83H16.7c-2.1,0-3.9,1.8-3.9,3.9c0,2.1,1.8,3.9,3.9,3.9H46v5.1
				c0,2.1,1.8,3.9,3.9,3.9c2.1,0,3.9-1.8,3.9-3.9V79.2c0-1-0.4-2-1.1-2.8C52.1,75.8,51.1,75.3,50.1,75.3z"/>
			
				<linearGradient id="SVGID_4_" gradientUnits="userSpaceOnUse" x1="406.634" y1="247.8759" x2="408.3259" y2="247.8759" gradientTransform="matrix(86 0 0 51 -34952 -12555.002)">
				<stop  offset="0" style="stop-color:#4910C6"/>
				<stop  offset="1" style="stop-color:#FF7B53"/>
			</linearGradient>
			<path class="st8" d="M164.3,82.1h-29.3v-3.8c0-1.4-0.8-2.7-2-3.4c-1.3-0.6-2.8-0.6-3.9,0c-1.3,0.6-2,2-2,3.4V95
				c0,1.4,0.8,2.7,2,3.4c1.3,0.6,2.8,0.6,3.9,0c1.3-0.6,2-2,2-3.4V90h29.3c2.1,0,3.9-1.8,3.9-3.9C168.2,83.9,166.4,82.1,164.3,82.1
				L164.3,82.1z"/>
		</g>
	</g>
</g>
</svg>
